# xmcd CD database file
#
# Track frame offsets:
#	150
#	13007
#	26195
#	46105
#	64155
#	75422
#	93602
#	107072
#	120455
#	135517
#	154602
#	175710
#	190747
#	213737
#	240182
#
# Disc length: 3425 seconds
#
# Revision: 0
# Processed by: cddbd v1.5.1PL2 Copyright (c) Steve Scherf et al.
# Submitted via: CDex 1.51
#
DISCID=b90d5f0f
DTITLE=Milano Hot Jazz Orchestra - The Storybook Ball
DYEAR=1999
DGENRE=Jazz
TTITLE0=The Storybook Ball
TTITLE1=The Blues I love to sing
TTITLE2=Happy Feet
TTITLE3=A gipsy without a song
TTITLE4=Jubilee Stomp
TTITLE5=If you see my Mother
TTITLE6=Papa da da da
TTITLE7=Alligator Crawl
TTITLE8=Accordion Joe
TTITLE9=Of oll the Wrongs
TTITLE10=Pretty Baby
TTITLE11=Sweet like this
TTITLE12=Roll on, Missisippi roll on
TTITLE13=I'm a little Blackbird
TTITLE14=Bay City
EXTD=YEAR: 1999
EXTT0=
EXTT1=
EXTT2=
EXTT3=
EXTT4=
EXTT5=
EXTT6=
EXTT7=
EXTT8=
EXTT9=
EXTT10=
EXTT11=
EXTT12=
EXTT13=
EXTT14=
PLAYORDER=
